<svg id="Layer_1" data-name="Layer 1" xmlns="http://www.w3.org/2000/svg" viewBox="0 0 150 150"><defs><style>.cls-1{fill:#424297;}.cls-2{fill:#fff;}</style></defs><title>Artboard 1</title><path class="cls-1" d="M150,75A75,75,0,1,1,75,0,75,75,0,0,1,150,75Z"/><path class="cls-2" d="M42.66,85.32H30.49L47.14,64.63V62.75H26.84v8.19H28.5c.83-5.37,1.16-6.25,3.2-6.25H42.55L26,85.38v1.88h21.3V78.46H45.6C44.87,84.27,44.6,85.32,42.66,85.32Z"/><path class="cls-2" d="M61.49,62.25c-6.2,0-11.51,5.25-11.51,13s5,12.5,11.51,12.5c6.2,0,11.51-5.2,11.51-12.95S68,62.25,61.49,62.25Zm.17,23.52c-3.87,0-7.86-3.27-7.86-10.68s3.6-10.84,7.53-10.84S69.18,67.56,69.18,75,65.59,85.77,61.66,85.77Z"/><path class="cls-2" d="M97.88,70.11c0-5.2-2.43-7.86-6.75-7.86-2.88,0-6.36,1.55-9.41,6.86V62.75H74.08V65h4.2V85h-4.2v2.21H85.71V85H81.83V73.15c0-3.16,3.6-8,7.75-8a4.3,4.3,0,0,1,3.32,1.22c1.11,1.1,1.44,3,1.44,5.7V85H90.46v2.21H102V85H97.88V70.11Z"/><path class="cls-2" d="M114.08,62.25c-6.2,0-11.34,5.42-11.34,13s4.54,12.5,11.34,12.5c4.75,0,8.24-2.6,9.79-7.47h-2c-1.49,3.93-4.15,5-7.19,5-4.65,0-8-3.54-8.08-10.18H124C124.21,68.61,121,62.25,114.08,62.25Zm-7.42,10.68c.56-5.42,3.43-8.68,7.31-8.68,3.7,0,5.92,3.1,6.3,8.68Z"/></svg>